# xmcd CD database file
#
# Track frame offsets:
#	150
#	22233
#	42657
#	61880
#	77421
#	91642
#	108249
#	129564
#	146745
#	164128
#
# Disc length: 2637 seconds
#
# Revision: 0
# Processed by: cddbd v1.5.1PL0 Copyright (c) Steve Scherf et al.
# Submitted via: CD2WAV32(JP) R3.22
#
DISCID=860a4b0a
DTITLE=笠原弘子 - BUTTERFLY
DYEAR=2003
DGENRE=Pop
TTITLE0=青い空と白い雲
TTITLE1=ミルクティー
TTITLE2=幻想
TTITLE3=ふたり
TTITLE4=Sweet
TTITLE5=バタフライ
TTITLE6=I Love Youって何回言った
TTITLE7=思い立ったが吉日
TTITLE8=ごめんね…
TTITLE9=月と星の輝く夜に
EXTD=
EXTT0=
EXTT1=
EXTT2=
EXTT3=
EXTT4=
EXTT5=
EXTT6=
EXTT7=
EXTT8=
EXTT9=
PLAYORDER=
